<svg width="375" height="43" viewBox="0 0 375 43" fill="none" xmlns="http://www.w3.org/2000/svg">
<path d="M3.08678 34.488L3.00078 34.352C1.76781 32.1819 0.896442 29.8254 0.420876 27.3752C0.0820199 25.6502 -0.0529866 23.8914 0.0186326 22.135C0.216897 16.6651 2.36217 11.4458 6.06792 7.41759C9.77367 3.38937 14.7962 0.817076 20.2306 0.164167C21.6247 -0.00907671 23.0323 -0.045313 24.4334 0.0559772C30.4975 0.50538 35.6407 2.93826 39.7991 7.3768C41.9126 9.61915 43.5208 12.2887 44.515 15.2053C45.3681 17.7235 45.7316 20.3817 45.5858 23.0365C45.3584 27.199 43.8849 31.197 41.3566 34.5114C38.8282 37.8258 35.3618 40.3035 31.4074 41.6229C30.2043 42.0287 28.9651 42.3185 27.7068 42.4884C26.3894 42.6733 25.0569 42.7281 23.7288 42.6521C22.0281 42.5546 20.3457 42.25 18.7188 41.745C18.6615 41.7288 18.6071 41.7035 18.5579 41.6701C18.5906 41.6718 18.6231 41.6765 18.655 41.684C21.387 42.443 24.2528 42.5901 27.0482 42.115C29.8435 41.6398 32.4997 40.5539 34.8275 38.9348C37.1553 37.3157 39.0973 35.2031 40.5152 32.7476C41.9332 30.2921 42.7921 27.5541 43.0309 24.7287C43.4527 19.8419 41.9898 14.9788 38.9419 11.1357C36.1955 7.61548 32.2958 5.17644 27.9287 4.24763C26.2482 3.87285 24.5241 3.73189 22.805 3.82874C19.1079 4.02995 15.547 5.29208 12.5485 7.46414C9.54989 9.63619 7.24061 12.6262 5.89693 16.0763C5.36288 17.4555 4.986 18.8904 4.77342 20.354C4.19099 24.3962 4.91098 28.5189 6.82902 32.1245C6.85121 32.1716 6.87618 32.2188 6.90947 32.2826L3.08678 34.488Z" fill="#53545C"/>
<path d="M25.4324 18.653C25.1126 18.7738 24.8395 18.9934 24.6529 19.2799C24.4734 19.5607 24.3562 19.8766 24.3089 20.2065C24.0953 20.2065 23.8928 20.187 23.6931 20.1843C23.5247 20.1821 23.3576 20.2134 23.2014 20.2762C23.0452 20.3391 22.9031 20.4323 22.7832 20.5505C22.5722 20.7412 22.4121 20.9815 22.3171 21.2495C22.2986 21.3066 22.2647 21.3575 22.2192 21.3966C22.1737 21.4358 22.1183 21.4617 22.0591 21.4715C20.869 21.8043 19.6817 22.1178 18.4833 22.4368L18.2586 22.4979C18.2052 22.3109 18.1754 22.118 18.1698 21.9236C18.1217 21.2989 18.2015 20.671 18.4042 20.0781C18.6069 19.4852 18.9283 18.9399 19.3488 18.4754C19.6208 18.1696 19.9218 17.8909 20.2476 17.6432L20.378 17.5406V17.5073L19.1103 17.3186C20.6217 15.8288 22.5177 14.7886 24.5863 14.3143C22.9245 14.3291 21.2889 14.7309 19.8093 15.4877C18.3175 16.2343 17.0309 17.3342 16.0615 18.6918L17.0519 18.7778L16.9104 18.9526C16.0722 19.9331 15.4409 21.073 15.0545 22.3037C14.9436 22.6643 14.8659 23.036 14.7771 23.4133C14.7605 23.4938 14.7383 23.5465 14.6523 23.5714L12.2194 24.301C12.1964 24.3033 12.1731 24.3033 12.1501 24.301C12.1754 23.7524 12.2403 23.2063 12.3443 22.6671C12.3026 22.6755 12.2617 22.6876 12.2222 22.7031C11.7298 22.9098 11.2104 23.0452 10.6798 23.1054C10.0144 23.1757 9.34171 23.1211 8.69633 22.9445C8.66974 22.934 8.6438 22.922 8.61865 22.9084L8.79619 22.8363C9.26227 22.665 9.71169 22.4514 10.1389 22.1983C10.8776 21.7496 11.4911 21.1218 11.9226 20.3729C12.1806 19.9346 12.4081 19.4741 12.6577 19.0303C12.6707 18.9989 12.6809 18.9664 12.6882 18.9332C12.5475 18.925 12.4064 18.9428 12.2721 18.9859C11.9216 19.0779 11.5849 19.216 11.2707 19.3964C10.8339 19.6443 10.4223 19.9342 10.0418 20.2619L9.92802 20.3507C9.92802 20.3507 9.92802 20.3507 9.89473 20.3507C9.89473 20.2925 9.89473 20.2314 9.9197 20.1704C10.0567 19.496 10.3918 18.8778 10.8823 18.395C11.3346 17.9479 11.8576 17.5786 12.4303 17.302C13.2558 16.9003 14.1266 16.5995 15.024 16.406L15.196 16.3644C15.196 16.3644 15.196 16.3644 15.2238 16.3338C14.7952 16.3293 14.3708 16.2495 13.9699 16.098C13.5773 15.9356 13.2153 15.7077 12.8991 15.4239C12.9268 15.4239 12.9407 15.4239 12.9518 15.4239C13.5481 15.5808 14.1755 15.5751 14.7688 15.4073C15.3342 15.266 15.8782 15.0495 16.3861 14.7637C16.8189 14.5251 17.2461 14.2699 17.6761 14.0258C18.2284 13.6894 18.8212 13.4247 19.4404 13.238C19.453 13.2296 19.4651 13.2203 19.4764 13.2102C19.4593 13.1929 19.4408 13.1771 19.421 13.1631C19.1012 12.9796 18.805 12.7578 18.5388 12.5028C18.3613 12.3419 18.1837 12.181 18.0006 12.0257C17.811 11.8594 17.5847 11.7404 17.3403 11.6782C17.0959 11.616 16.8402 11.6124 16.5942 11.6678H16.4749C16.5022 11.6308 16.5318 11.5956 16.5636 11.5624C16.7855 11.3445 17.0582 11.1854 17.3571 11.0997C17.656 11.0139 17.9716 11.0042 18.2753 11.0714C18.6633 11.1478 19.0413 11.2688 19.4015 11.432C19.8121 11.6068 20.2338 11.7927 20.6388 11.9591C21.2259 12.1878 21.844 12.3271 22.4725 12.3724C23.0273 12.4141 23.5599 12.439 24.1036 12.4695C24.5989 12.4918 25.0925 12.5418 25.5822 12.6193C25.7359 12.6397 25.8905 12.6518 26.0455 12.6554C26.6052 12.675 27.1622 12.7437 27.7099 12.8607C27.7598 12.8749 27.8126 12.8749 27.8625 12.8607C28.5311 12.5833 29.1996 12.3253 29.8626 12.0479C30.2842 11.8547 30.6331 11.5321 30.8585 11.1269L30.9417 10.9909L30.9778 10.9688C30.9778 11.0437 30.9778 11.1075 30.9945 11.174C31.0144 11.4344 31.0023 11.6962 30.9584 11.9536C30.9336 12.1287 30.8649 12.2948 30.7587 12.4362C30.4591 12.8246 30.1576 13.2121 29.8543 13.5986C29.7739 13.704 29.6906 13.8066 29.5963 13.9204L29.7572 13.9897C30.2547 14.1803 30.7121 14.4626 31.1054 14.822C31.2671 14.9687 31.4366 15.1067 31.6131 15.2353C31.8099 15.3835 32.0359 15.4884 32.2761 15.5432C32.5854 15.6054 32.8687 15.7598 33.0885 15.9861C33.3084 16.2124 33.4546 16.5 33.5078 16.811C33.5447 16.9757 33.5606 17.1444 33.5549 17.3131L33.5022 17.2354C33.4057 17.0617 33.3001 16.8932 33.186 16.7305C33.1058 16.6162 32.9969 16.5251 32.8703 16.4662C32.7437 16.4072 32.6038 16.3827 32.4647 16.3949C31.9602 16.4258 31.4578 16.3081 31.0194 16.0564C30.9845 16.0367 30.9483 16.0191 30.9112 16.0037C30.889 16.0758 30.939 16.1175 30.9639 16.1646C31.4439 16.9968 31.9515 17.8291 32.498 18.6197C33.1943 19.6322 33.8851 20.6364 34.6008 21.6434C34.9535 22.1263 35.2434 22.652 35.4635 23.208C35.6037 23.571 35.6969 23.9504 35.7409 24.3371C35.7719 24.5116 35.7374 24.6914 35.6438 24.842C35.5234 25.062 35.4427 25.3014 35.4053 25.5494C35.3853 25.6545 35.3508 25.7562 35.3026 25.8517C35.2618 25.9398 35.1985 26.0157 35.1191 26.0716C35.0398 26.1276 34.9471 26.1618 34.8504 26.1708C34.7448 26.1869 34.6382 26.1961 34.5314 26.1985C34.2657 26.1923 34.0002 26.2184 33.7408 26.2762C33.4376 26.3441 33.123 26.3441 32.8198 26.2762C32.6334 26.2409 32.4622 26.1495 32.3293 26.0141C32.1964 25.8787 32.1082 25.7059 32.0763 25.5188C32.0514 25.4051 32.032 25.2886 32.0153 25.1721C31.9783 24.9 31.8513 24.6481 31.6547 24.4564C31.425 24.2395 31.1556 24.069 30.8613 23.9543C30.6338 23.8544 30.4036 23.7518 30.1844 23.6325C29.8908 23.4765 29.6336 23.26 29.4299 22.9972C29.3744 22.9223 29.3106 22.9251 29.2329 22.9251C28.4583 22.9345 27.6873 22.8184 26.9498 22.5811C26.4194 22.4101 25.9373 22.1153 25.5434 21.7211C25.5118 21.6927 25.4864 21.6581 25.4688 21.6194C25.4511 21.5808 25.4416 21.5389 25.4407 21.4964C25.4326 21.3362 25.3818 21.1811 25.2937 21.047C25.23 20.9363 25.1506 20.8354 25.0579 20.7474C24.9833 20.6833 24.9235 20.6037 24.8828 20.5141C24.842 20.4245 24.8213 20.3271 24.8221 20.2287C24.7879 19.7065 24.9614 19.192 25.3048 18.7972C25.327 18.7723 25.3464 18.7473 25.3686 18.7251L25.4324 18.653Z" fill="#53545C"/>
<path d="M12.1572 25.3591L14.6178 24.832V25.0013C14.601 26.4315 14.8926 27.8485 15.4728 29.1559C16.053 30.4633 16.9082 31.6302 17.98 32.5773C19.3532 33.8308 21.0575 34.6636 22.8902 34.9769C23.7725 35.1408 24.6722 35.1903 25.5672 35.1239C27.7285 34.9715 29.7871 34.1426 31.451 32.7548C32.0497 32.2612 32.5921 31.703 33.0683 31.0904C33.0993 31.0496 33.1326 31.0107 33.1682 30.9739C31.1459 34.386 26.4299 37.1795 21.0593 35.9672C15.4418 34.73 12.2543 29.781 12.1572 25.3591Z" fill="#53545C"/>
<path d="M9.11182 25.6258L10.1022 25.3179C13.2452 24.3442 16.391 23.376 19.5618 22.4994C20.4717 22.2469 21.3844 22.0139 22.2998 21.7753C22.3569 21.7652 22.4104 21.7408 22.4555 21.7044C22.5006 21.6681 22.5358 21.6209 22.5578 21.5673C22.6105 21.4452 22.6716 21.3259 22.7215 21.2011C22.8384 20.9379 23.048 20.7268 23.3104 20.6082C23.5728 20.4895 23.8698 20.4715 24.1446 20.5575C24.3624 20.6163 24.5619 20.729 24.7248 20.8851C24.8877 21.0411 25.0087 21.2357 25.0767 21.4508C25.1231 21.5873 25.14 21.7321 25.1261 21.8756C25.1122 22.0191 25.068 22.158 24.9962 22.283C24.8615 22.5604 24.6351 22.7828 24.3554 22.9127C24.2673 22.9456 24.1899 23.002 24.1317 23.0759C24.0735 23.1498 24.0367 23.2382 24.0253 23.3316C23.6148 25.4094 23.1931 27.4927 22.777 29.5594C22.519 30.8522 22.2665 32.1449 22.0113 33.4432C22.0012 33.5024 21.9815 33.5595 21.9531 33.6124C21.9531 33.5819 21.9531 33.5541 21.9531 33.5264C22.0113 32.9272 22.0668 32.3252 22.1278 31.726C22.1889 31.1268 22.2638 30.4943 22.3331 29.8812C22.4025 29.2682 22.494 28.5774 22.5717 27.9394C22.6494 27.3013 22.7215 26.7021 22.7825 26.0807C22.8491 25.4177 22.9046 24.7519 22.9545 24.0862C22.9975 23.7092 22.9975 23.3285 22.9545 22.9516C22.9379 22.8775 22.9175 22.8044 22.8935 22.7324L9.12014 25.6563L9.11182 25.6258ZM24.4775 21.8225C24.481 21.7368 24.4667 21.6513 24.4355 21.5714C24.4042 21.4915 24.3567 21.419 24.2959 21.3585C24.2351 21.298 24.1624 21.2508 24.0824 21.2199C24.0024 21.1889 23.9168 21.175 23.8311 21.1789C23.7509 21.1685 23.6693 21.1748 23.5916 21.1976C23.514 21.2204 23.4419 21.2592 23.3801 21.3114C23.3182 21.3636 23.2679 21.4281 23.2324 21.5008C23.1968 21.5735 23.1768 21.6529 23.1737 21.7337C23.1706 21.9149 23.2386 22.09 23.363 22.2217C23.4874 22.3534 23.6584 22.4311 23.8395 22.4384C23.9226 22.443 24.0057 22.4303 24.0838 22.4013C24.1618 22.3723 24.233 22.3275 24.2929 22.2697C24.3527 22.2118 24.4001 22.1423 24.4318 22.0653C24.4636 21.9884 24.4791 21.9057 24.4775 21.8225Z" fill="#53545C"/>
<path d="M16.7585 24.3778L17.6546 24.1836C17.6712 24.2141 17.6851 24.2335 17.6962 24.2585C18.1668 25.4579 18.9801 26.4922 20.0347 27.2323C20.6617 27.69 21.3219 28.0895 21.9766 28.4973L22.1458 28.6027C22.046 29.4349 21.9461 30.2672 21.8434 31.1216C21.8178 31.1166 21.7927 31.1092 21.7685 31.0994C21.0479 30.7383 20.3568 30.3209 19.7019 29.8511C18.9406 29.2968 18.2968 28.597 17.8078 27.7923C17.3187 26.9876 16.9942 26.0939 16.8529 25.1628C16.8168 24.9132 16.7918 24.658 16.7585 24.3778Z" fill="#53545C"/>
<path d="M22.2274 27.6265C20.744 26.7562 19.5341 25.4876 18.7349 23.9647L21.9889 23.2656C21.8897 23.9912 21.8776 24.726 21.9528 25.4544C22.0249 26.159 22.1331 26.8747 22.2274 27.6265Z" fill="#53545C"/>
<path d="M26.2258 33.9733C25.992 33.5921 25.6741 33.2695 25.2965 33.0301C24.7439 32.6572 24.1675 32.3208 23.571 32.0231L22.7388 31.5903L23.1993 29.2656L23.2714 29.2906C23.8024 29.6222 24.3077 29.9931 24.7833 30.4002C25.1786 30.7365 25.5169 31.1347 25.7847 31.5792C26.2048 32.302 26.3607 33.1482 26.2258 33.9733Z" fill="#53545C"/>
<path opacity="0.7" d="M28.4807 10.9375C28.5685 11.1464 28.5851 11.3784 28.5279 11.5977C28.4849 11.7561 28.4175 11.9068 28.3281 12.0444C28.237 12.1822 28.1289 12.3081 28.0063 12.4189C27.9591 12.4657 27.9006 12.4997 27.8365 12.5177C27.7725 12.5356 27.7049 12.537 27.6401 12.5215C27.3433 12.466 27.0409 12.4327 26.7413 12.3911C26.6399 12.3825 26.539 12.3686 26.439 12.3495C27.2213 12.0333 27.9925 11.7087 28.4807 10.9375Z" fill="#53545C"/>
<path d="M63.5135 32.3438V10.5256H72.1214C73.7763 10.5256 75.1861 10.8416 76.3509 11.4737C77.5156 12.0987 78.4034 12.9687 79.0142 14.0838C79.6321 15.1918 79.9411 16.4702 79.9411 17.919C79.9411 19.3679 79.6286 20.6463 79.0036 21.7543C78.3786 22.8622 77.473 23.7251 76.2869 24.343C75.108 24.9609 73.6804 25.2699 72.0043 25.2699H66.5178V21.5732H71.2585C72.1463 21.5732 72.8778 21.4205 73.4531 21.1151C74.0355 20.8026 74.4688 20.3729 74.7528 19.826C75.044 19.272 75.1896 18.6364 75.1896 17.919C75.1896 17.1946 75.044 16.5625 74.7528 16.0227C74.4688 15.4759 74.0355 15.0533 73.4531 14.755C72.8707 14.4496 72.1321 14.2969 71.2372 14.2969H68.1264V32.3438H63.5135ZM93.3457 25.3764V15.9801H97.8841V32.3438H93.5268V29.3714H93.3564C92.987 30.3303 92.3727 31.1009 91.5133 31.6832C90.661 32.2656 89.6206 32.5568 88.3919 32.5568C87.2981 32.5568 86.3358 32.3082 85.5048 31.8111C84.6738 31.3139 84.024 30.6072 83.5552 29.6911C83.0936 28.7749 82.8592 27.6776 82.8521 26.3991V15.9801H87.3904V25.5895C87.3975 26.5554 87.6568 27.3189 88.1681 27.88C88.6795 28.4411 89.3649 28.7216 90.2243 28.7216C90.7711 28.7216 91.2825 28.5973 91.7583 28.3487C92.2342 28.093 92.6177 27.7166 92.9089 27.2195C93.2072 26.7223 93.3528 26.108 93.3457 25.3764ZM101.514 32.3438V15.9801H105.914V18.8352H106.085C106.383 17.8196 106.884 17.0526 107.587 16.5341C108.29 16.0085 109.099 15.7457 110.016 15.7457C110.243 15.7457 110.488 15.7599 110.751 15.7884C111.013 15.8168 111.244 15.8558 111.443 15.9055V19.9325C111.23 19.8686 110.935 19.8118 110.559 19.7621C110.183 19.7124 109.838 19.6875 109.526 19.6875C108.858 19.6875 108.261 19.8331 107.736 20.1243C107.217 20.4084 106.805 20.8061 106.5 21.3175C106.202 21.8288 106.053 22.4183 106.053 23.0859V32.3438H101.514ZM120.421 32.6634C118.767 32.6634 117.335 32.3118 116.128 31.6087C114.928 30.8984 114.001 29.9112 113.347 28.647C112.694 27.3757 112.367 25.902 112.367 24.2259C112.367 22.5355 112.694 21.0582 113.347 19.794C114.001 18.5227 114.928 17.5355 116.128 16.8324C117.335 16.1222 118.767 15.767 120.421 15.767C122.076 15.767 123.504 16.1222 124.704 16.8324C125.911 17.5355 126.842 18.5227 127.495 19.794C128.149 21.0582 128.475 22.5355 128.475 24.2259C128.475 25.902 128.149 27.3757 127.495 28.647C126.842 29.9112 125.911 30.8984 124.704 31.6087C123.504 32.3118 122.076 32.6634 120.421 32.6634ZM120.443 29.1477C121.195 29.1477 121.824 28.9347 122.328 28.5085C122.833 28.0753 123.213 27.4858 123.468 26.7401C123.731 25.9943 123.862 25.1456 123.862 24.1939C123.862 23.2422 123.731 22.3935 123.468 21.6477C123.213 20.902 122.833 20.3125 122.328 19.8793C121.824 19.446 121.195 19.2294 120.443 19.2294C119.683 19.2294 119.044 19.446 118.525 19.8793C118.014 20.3125 117.627 20.902 117.364 21.6477C117.108 22.3935 116.98 23.2422 116.98 24.1939C116.98 25.1456 117.108 25.9943 117.364 26.7401C117.627 27.4858 118.014 28.0753 118.525 28.5085C119.044 28.9347 119.683 29.1477 120.443 29.1477ZM145.041 20.6463L140.887 20.902C140.816 20.5469 140.663 20.2273 140.428 19.9432C140.194 19.652 139.885 19.4212 139.502 19.2507C139.125 19.0732 138.674 18.9844 138.149 18.9844C137.445 18.9844 136.852 19.1335 136.369 19.4318C135.887 19.723 135.645 20.1136 135.645 20.6037C135.645 20.9943 135.801 21.3246 136.114 21.5945C136.426 21.8643 136.963 22.081 137.722 22.2443L140.684 22.8409C142.275 23.1676 143.461 23.6932 144.242 24.4176C145.024 25.142 145.414 26.0937 145.414 27.2727C145.414 28.3452 145.098 29.2862 144.466 30.0959C143.841 30.9055 142.982 31.5376 141.888 31.9922C140.801 32.4396 139.548 32.6634 138.127 32.6634C135.961 32.6634 134.235 32.2124 132.95 31.3104C131.671 30.4013 130.922 29.1655 130.702 27.603L135.166 27.3686C135.301 28.0291 135.627 28.5334 136.146 28.8814C136.664 29.2223 137.328 29.3928 138.138 29.3928C138.933 29.3928 139.573 29.2401 140.056 28.9347C140.546 28.6222 140.794 28.2209 140.801 27.7308C140.794 27.3189 140.62 26.9815 140.279 26.7188C139.938 26.4489 139.413 26.2429 138.703 26.1009L135.869 25.5362C134.271 25.2166 133.081 24.6626 132.3 23.8743C131.526 23.0859 131.139 22.081 131.139 20.8594C131.139 19.8082 131.423 18.9027 131.991 18.1428C132.566 17.3828 133.372 16.7969 134.409 16.3849C135.453 15.973 136.675 15.767 138.074 15.767C140.141 15.767 141.767 16.2038 142.953 17.0774C144.146 17.951 144.843 19.1406 145.041 20.6463ZM152.938 32.6527C151.894 32.6527 150.964 32.4716 150.147 32.1094C149.33 31.7401 148.684 31.1967 148.208 30.4794C147.739 29.755 147.505 28.853 147.505 27.7734C147.505 26.8643 147.672 26.1009 148.006 25.483C148.339 24.8651 148.794 24.3679 149.369 23.9915C149.945 23.6151 150.598 23.331 151.33 23.1392C152.068 22.9474 152.842 22.8125 153.652 22.7344C154.604 22.6349 155.371 22.5426 155.953 22.4574C156.536 22.3651 156.958 22.2301 157.221 22.0526C157.484 21.875 157.615 21.6122 157.615 21.2642V21.2003C157.615 20.5256 157.402 20.0036 156.976 19.6342C156.557 19.2649 155.96 19.0803 155.186 19.0803C154.369 19.0803 153.719 19.2614 153.237 19.6236C152.754 19.9787 152.434 20.4261 152.278 20.9659L148.08 20.625C148.293 19.6307 148.712 18.7713 149.337 18.0469C149.962 17.3153 150.768 16.7543 151.756 16.3636C152.75 15.9659 153.901 15.767 155.207 15.767C156.116 15.767 156.987 15.8736 157.817 16.0866C158.656 16.2997 159.398 16.63 160.044 17.0774C160.697 17.5249 161.212 18.1001 161.589 18.8033C161.965 19.4993 162.153 20.3338 162.153 21.3068V32.3438H157.849V30.0746H157.722C157.459 30.5859 157.107 31.0369 156.667 31.4276C156.227 31.8111 155.697 32.1129 155.08 32.3331C154.462 32.5462 153.748 32.6527 152.938 32.6527ZM154.238 29.5206C154.906 29.5206 155.495 29.3892 156.006 29.1264C156.518 28.8565 156.919 28.4943 157.21 28.0398C157.501 27.5852 157.647 27.0703 157.647 26.495V24.7585C157.505 24.8509 157.31 24.9361 157.061 25.0142C156.82 25.0852 156.546 25.1527 156.241 25.2166C155.935 25.2734 155.63 25.3267 155.325 25.3764C155.019 25.419 154.742 25.4581 154.494 25.4936C153.961 25.5717 153.496 25.696 153.098 25.8665C152.7 26.0369 152.391 26.2678 152.171 26.5589C151.951 26.843 151.841 27.1982 151.841 27.6243C151.841 28.2422 152.065 28.7145 152.512 29.0412C152.967 29.3608 153.542 29.5206 154.238 29.5206ZM170.213 22.8835V32.3438H165.674V15.9801H170V18.8672H170.191C170.554 17.9155 171.161 17.1626 172.013 16.6087C172.865 16.0476 173.899 15.767 175.113 15.767C176.25 15.767 177.24 16.0156 178.086 16.5128C178.931 17.0099 179.588 17.7202 180.056 18.6435C180.525 19.5597 180.76 20.6534 180.76 21.9247V32.3438H176.221V22.7344C176.228 21.733 175.973 20.9517 175.454 20.3906C174.936 19.8224 174.222 19.5384 173.313 19.5384C172.702 19.5384 172.162 19.6697 171.694 19.9325C171.232 20.1953 170.87 20.5788 170.607 21.0831C170.351 21.5803 170.22 22.1804 170.213 22.8835ZM191.709 38.821C190.238 38.821 188.978 38.6186 187.927 38.2138C186.883 37.8161 186.052 37.2727 185.434 36.5838C184.816 35.8949 184.415 35.1207 184.23 34.2614L188.427 33.6967C188.555 34.0234 188.758 34.3288 189.035 34.6129C189.312 34.897 189.677 35.1243 190.132 35.2947C190.594 35.4723 191.155 35.5611 191.815 35.5611C192.802 35.5611 193.616 35.3196 194.255 34.8366C194.901 34.3608 195.224 33.5618 195.224 32.4396V29.446H195.032C194.834 29.9006 194.535 30.3303 194.138 30.7351C193.74 31.1399 193.229 31.4702 192.604 31.7259C191.979 31.9815 191.233 32.1094 190.366 32.1094C189.138 32.1094 188.019 31.8253 187.01 31.2571C186.009 30.6818 185.21 29.8047 184.613 28.6257C184.024 27.4396 183.729 25.9411 183.729 24.13C183.729 22.2763 184.031 20.728 184.635 19.4851C185.238 18.2422 186.041 17.3118 187.042 16.6939C188.051 16.076 189.155 15.767 190.356 15.767C191.272 15.767 192.039 15.9233 192.657 16.2358C193.275 16.5412 193.772 16.9247 194.148 17.3864C194.532 17.8409 194.827 18.2884 195.032 18.7287H195.203V15.9801H199.709V32.5036C199.709 33.8956 199.368 35.0604 198.687 35.9979C198.005 36.9354 197.06 37.6385 195.853 38.1072C194.653 38.5831 193.271 38.821 191.709 38.821ZM191.805 28.7003C192.536 28.7003 193.154 28.5192 193.658 28.157C194.17 27.7876 194.56 27.2621 194.83 26.5803C195.107 25.8913 195.246 25.0675 195.246 24.1087C195.246 23.1499 195.111 22.3189 194.841 21.6158C194.571 20.9055 194.18 20.3551 193.669 19.9645C193.157 19.5739 192.536 19.3786 191.805 19.3786C191.059 19.3786 190.43 19.581 189.919 19.9858C189.407 20.3835 189.02 20.9375 188.758 21.6477C188.495 22.358 188.363 23.1783 188.363 24.1087C188.363 25.0533 188.495 25.87 188.758 26.5589C189.028 27.2408 189.415 27.7699 189.919 28.1463C190.43 28.5156 191.059 28.7003 191.805 28.7003ZM213.814 25.3764V15.9801H218.353V32.3438H213.996V29.3714H213.825C213.456 30.3303 212.841 31.1009 211.982 31.6832C211.13 32.2656 210.089 32.5568 208.861 32.5568C207.767 32.5568 206.805 32.3082 205.974 31.8111C205.143 31.3139 204.493 30.6072 204.024 29.6911C203.562 28.7749 203.328 27.6776 203.321 26.3991V15.9801H207.859V25.5895C207.866 26.5554 208.126 27.3189 208.637 27.88C209.148 28.4411 209.834 28.7216 210.693 28.7216C211.24 28.7216 211.751 28.5973 212.227 28.3487C212.703 28.093 213.086 27.7166 213.378 27.2195C213.676 26.7223 213.822 26.108 213.814 25.3764ZM229.44 32.6634C227.757 32.6634 226.308 32.3224 225.094 31.6406C223.886 30.9517 222.956 29.9787 222.303 28.7216C221.649 27.4574 221.322 25.9624 221.322 24.2365C221.322 22.5533 221.649 21.076 222.303 19.8047C222.956 18.5334 223.876 17.5426 225.062 16.8324C226.255 16.1222 227.654 15.767 229.259 15.767C230.339 15.767 231.344 15.9411 232.274 16.2891C233.212 16.63 234.028 17.1449 234.724 17.8338C235.428 18.5227 235.974 19.3892 236.365 20.4332C236.756 21.4702 236.951 22.6847 236.951 24.0767V25.3232H223.134V22.5107H232.679C232.679 21.8572 232.537 21.2784 232.253 20.7741C231.969 20.2699 231.575 19.8757 231.07 19.5916C230.573 19.3004 229.994 19.1548 229.334 19.1548C228.645 19.1548 228.034 19.3146 227.501 19.6342C226.976 19.9467 226.564 20.3693 226.266 20.902C225.967 21.4276 225.815 22.0135 225.808 22.6598V25.3338C225.808 26.1435 225.957 26.843 226.255 27.4325C226.56 28.022 226.99 28.4766 227.544 28.7962C228.098 29.1158 228.755 29.2756 229.515 29.2756C230.019 29.2756 230.481 29.2045 230.9 29.0625C231.319 28.9205 231.678 28.7074 231.976 28.4233C232.274 28.1392 232.501 27.7912 232.658 27.3793L236.855 27.6562C236.642 28.6648 236.205 29.5455 235.545 30.2983C234.891 31.044 234.046 31.6264 233.009 32.0455C231.979 32.4574 230.79 32.6634 229.44 32.6634ZM251.852 32.3438L245.61 10.5256H250.649L254.26 25.6854H254.441L258.426 10.5256H262.74L266.714 25.7173H266.906L270.517 10.5256H275.556L269.313 32.3438H264.818L260.663 18.0788H260.492L256.348 32.3438H251.852ZM280.848 32.6527C279.804 32.6527 278.874 32.4716 278.057 32.1094C277.24 31.7401 276.594 31.1967 276.118 30.4794C275.65 29.755 275.415 28.853 275.415 27.7734C275.415 26.8643 275.582 26.1009 275.916 25.483C276.25 24.8651 276.704 24.3679 277.279 23.9915C277.855 23.6151 278.508 23.331 279.24 23.1392C279.978 22.9474 280.752 22.8125 281.562 22.7344C282.514 22.6349 283.281 22.5426 283.863 22.4574C284.446 22.3651 284.868 22.2301 285.131 22.0526C285.394 21.875 285.525 21.6122 285.525 21.2642V21.2003C285.525 20.5256 285.312 20.0036 284.886 19.6342C284.467 19.2649 283.87 19.0803 283.096 19.0803C282.279 19.0803 281.63 19.2614 281.147 19.6236C280.664 19.9787 280.344 20.4261 280.188 20.9659L275.99 20.625C276.203 19.6307 276.623 18.7713 277.248 18.0469C277.873 17.3153 278.679 16.7543 279.666 16.3636C280.66 15.9659 281.811 15.767 283.118 15.767C284.027 15.767 284.897 15.8736 285.728 16.0866C286.566 16.2997 287.308 16.63 287.954 17.0774C288.608 17.5249 289.123 18.1001 289.499 18.8033C289.875 19.4993 290.064 20.3338 290.064 21.3068V32.3438H285.76V30.0746H285.632C285.369 30.5859 285.017 31.0369 284.577 31.4276C284.137 31.8111 283.608 32.1129 282.99 32.3331C282.372 32.5462 281.658 32.6527 280.848 32.6527ZM282.148 29.5206C282.816 29.5206 283.405 29.3892 283.917 29.1264C284.428 28.8565 284.829 28.4943 285.12 28.0398C285.412 27.5852 285.557 27.0703 285.557 26.495V24.7585C285.415 24.8509 285.22 24.9361 284.971 25.0142C284.73 25.0852 284.456 25.1527 284.151 25.2166C283.846 25.2734 283.54 25.3267 283.235 25.3764C282.929 25.419 282.652 25.4581 282.404 25.4936C281.871 25.5717 281.406 25.696 281.008 25.8665C280.61 26.0369 280.301 26.2678 280.081 26.5589C279.861 26.843 279.751 27.1982 279.751 27.6243C279.751 28.2422 279.975 28.7145 280.422 29.0412C280.877 29.3608 281.452 29.5206 282.148 29.5206ZM302.288 15.9801V19.3892H292.434V15.9801H302.288ZM294.671 12.0597H299.21V27.3153C299.21 27.7344 299.273 28.0611 299.401 28.2955C299.529 28.5227 299.707 28.6825 299.934 28.7749C300.168 28.8672 300.438 28.9134 300.744 28.9134C300.957 28.9134 301.17 28.8956 301.383 28.8601C301.596 28.8175 301.759 28.7855 301.873 28.7642L302.587 32.1413C302.359 32.2124 302.04 32.294 301.628 32.3864C301.216 32.4858 300.715 32.5462 300.126 32.5675C299.032 32.6101 298.073 32.4645 297.249 32.1307C296.433 31.7969 295.797 31.2784 295.342 30.5753C294.888 29.8722 294.664 28.9844 294.671 27.9119V12.0597ZM312.462 32.6634C310.786 32.6634 309.344 32.3082 308.137 31.598C306.937 30.8807 306.013 29.8864 305.367 28.6151C304.728 27.3437 304.408 25.8807 304.408 24.2259C304.408 22.5497 304.732 21.0795 305.378 19.8153C306.031 18.544 306.958 17.5533 308.158 16.843C309.359 16.1257 310.786 15.767 312.441 15.767C313.869 15.767 315.119 16.0263 316.191 16.5447C317.263 17.0632 318.112 17.7912 318.737 18.7287C319.362 19.6662 319.707 20.767 319.771 22.0312H315.488C315.367 21.2145 315.048 20.5575 314.529 20.0604C314.018 19.5561 313.347 19.304 312.516 19.304C311.812 19.304 311.198 19.4957 310.673 19.8793C310.154 20.2557 309.749 20.8061 309.458 21.5305C309.167 22.255 309.021 23.1321 309.021 24.1619C309.021 25.206 309.163 26.0937 309.447 26.8253C309.739 27.5568 310.147 28.1143 310.673 28.4979C311.198 28.8814 311.812 29.0732 312.516 29.0732C313.034 29.0732 313.499 28.9666 313.911 28.7536C314.33 28.5405 314.675 28.2315 314.945 27.8267C315.222 27.4148 315.403 26.9212 315.488 26.3459H319.771C319.7 27.5959 319.359 28.6967 318.748 29.6484C318.144 30.593 317.31 31.3317 316.244 31.8643C315.179 32.397 313.918 32.6634 312.462 32.6634ZM327.215 22.8835V32.3438H322.676V10.5256H327.087V18.8672H327.279C327.648 17.9013 328.244 17.1449 329.068 16.598C329.892 16.044 330.926 15.767 332.169 15.767C333.305 15.767 334.296 16.0156 335.141 16.5128C335.993 17.0028 336.654 17.7095 337.122 18.6328C337.598 19.549 337.833 20.6463 337.825 21.9247V32.3438H333.287V22.7344C333.294 21.7259 333.039 20.9411 332.52 20.38C332.009 19.8189 331.291 19.5384 330.368 19.5384C329.75 19.5384 329.203 19.6697 328.727 19.9325C328.259 20.1953 327.889 20.5788 327.619 21.0831C327.357 21.5803 327.222 22.1804 327.215 22.8835ZM348.854 32.6634C347.171 32.6634 345.722 32.3224 344.508 31.6406C343.3 30.9517 342.37 29.9787 341.717 28.7216C341.063 27.4574 340.737 25.9624 340.737 24.2365C340.737 22.5533 341.063 21.076 341.717 19.8047C342.37 18.5334 343.29 17.5426 344.476 16.8324C345.669 16.1222 347.068 15.767 348.673 15.767C349.753 15.767 350.758 15.9411 351.688 16.2891C352.626 16.63 353.442 17.1449 354.138 17.8338C354.842 18.5227 355.388 19.3892 355.779 20.4332C356.17 21.4702 356.365 22.6847 356.365 24.0767V25.3232H342.548V22.5107H352.093C352.093 21.8572 351.951 21.2784 351.667 20.7741C351.383 20.2699 350.989 19.8757 350.484 19.5916C349.987 19.3004 349.408 19.1548 348.748 19.1548C348.059 19.1548 347.448 19.3146 346.915 19.6342C346.39 19.9467 345.978 20.3693 345.68 20.902C345.381 21.4276 345.229 22.0135 345.222 22.6598V25.3338C345.222 26.1435 345.371 26.843 345.669 27.4325C345.974 28.022 346.404 28.4766 346.958 28.7962C347.512 29.1158 348.169 29.2756 348.929 29.2756C349.433 29.2756 349.895 29.2045 350.314 29.0625C350.733 28.9205 351.092 28.7074 351.39 28.4233C351.688 28.1392 351.915 27.7912 352.072 27.3793L356.269 27.6562C356.056 28.6648 355.619 29.5455 354.959 30.2983C354.305 31.044 353.46 31.6264 352.423 32.0455C351.393 32.4574 350.204 32.6634 348.854 32.6634ZM372.942 20.6463L368.787 20.902C368.716 20.5469 368.563 20.2273 368.329 19.9432C368.094 19.652 367.786 19.4212 367.402 19.2507C367.026 19.0732 366.575 18.9844 366.049 18.9844C365.346 18.9844 364.753 19.1335 364.27 19.4318C363.787 19.723 363.545 20.1136 363.545 20.6037C363.545 20.9943 363.702 21.3246 364.014 21.5945C364.327 21.8643 364.863 22.081 365.623 22.2443L368.585 22.8409C370.175 23.1676 371.362 23.6932 372.143 24.4176C372.924 25.142 373.315 26.0937 373.315 27.2727C373.315 28.3452 372.999 29.2862 372.366 30.0959C371.741 30.9055 370.882 31.5376 369.788 31.9922C368.702 32.4396 367.448 32.6634 366.028 32.6634C363.862 32.6634 362.136 32.2124 360.85 31.3104C359.572 30.4013 358.822 29.1655 358.602 27.603L363.066 27.3686C363.201 28.0291 363.528 28.5334 364.046 28.8814C364.565 29.2223 365.229 29.3928 366.038 29.3928C366.834 29.3928 367.473 29.2401 367.956 28.9347C368.446 28.6222 368.695 28.2209 368.702 27.7308C368.695 27.3189 368.521 26.9815 368.18 26.7188C367.839 26.4489 367.313 26.2429 366.603 26.1009L363.769 25.5362C362.171 25.2166 360.982 24.6626 360.2 23.8743C359.426 23.0859 359.039 22.081 359.039 20.8594C359.039 19.8082 359.323 18.9027 359.891 18.1428C360.467 17.3828 361.273 16.7969 362.31 16.3849C363.354 15.973 364.575 15.767 365.974 15.767C368.041 15.767 369.668 16.2038 370.854 17.0774C372.047 17.951 372.743 19.1406 372.942 20.6463Z" fill="#FFB725"/>
</svg>
